<?xml version="1.0" standalone="no"?><!DOCTYPE svg PUBLIC "-//W3C//DTD SVG 1.1//EN" "http://www.w3.org/Graphics/SVG/1.1/DTD/svg11.dtd"><svg t="1761921232336" class="icon" viewBox="0 0 1024 1024" version="1.1" xmlns="http://www.w3.org/2000/svg" p-id="1592" xmlns:xlink="http://www.w3.org/1999/xlink" width="200" height="200"><path d="M556.576 159.36l288.48 183.904c17.888 11.552 29.6 31.392 29.6 53.952v392.736a64 64 0 0 1-64 64h-255.2l0.032-196.992h-64.8v196.992h-256a64 64 0 0 1-64-64V391.648c0-22.848 11.968-42.912 30.016-54.24l0.256-0.16 287.52-178.336c9.6-6.016 21.248-9.6 33.728-9.6 12.768 0 24.672 3.744 34.656 10.176l-0.256-0.16z m254.08 630.656V397.216l-288.48-183.904-287.52 178.336v398.336h192V592.96h192.8v196.992h191.2z" p-id="1593"></path></svg>