<svg width="78" height="79" viewBox="0 0 78 79" fill="none" xmlns="http://www.w3.org/2000/svg">
<rect x="21" y="1" width="37" height="40" rx="3" fill="#EF6060"/>
<g filter="url(#filter0_ddi_4_2)">
<rect x="25" y="5" width="28" height="31" rx="2" fill="#D9D9D9"/>
</g>
<path d="M30.6543 23.8242C30.6543 24.5404 30.3711 25.0384 29.8047 25.3184C29.5117 25.4551 29.2253 25.5234 28.9453 25.5234L28.7695 25.1914C29.1146 24.957 29.2871 24.5013 29.2871 23.8242V16.6367H30.6543V23.8242ZM27.9199 16.9785C27.9199 19.8171 27.5618 22.0697 26.8457 23.7363C26.4876 24.5632 26.1328 25.1035 25.7812 25.3574L25.5273 25.1133C26.0352 23.2383 26.3737 20.5267 26.543 16.9785H27.9199ZM33.3887 16.9785H32.0215L33.0469 25.3574H34.4141L33.3887 16.9785ZM37.6035 16.627L36.0605 19.7031H37.6035V20.2207L36.0605 23.2969H37.6035V23.8145H34.5273V23.2969L36.0703 20.2207H34.5273V19.7031L36.0605 16.627H37.6035ZM41.3633 17.4766V24.8398H43.4141V25.3477H37.9453V24.8398H39.9961V17.4766H38.2871V16.9688H43.0723V17.4766H41.3633ZM34.5273 25.3477V24.8398H37.6035V25.3477H34.5273ZM43.8594 18.1797V17.6621H45.9199V16.6367H47.2871V17.6621H50.5391V20.5625H52.0723V23.4727C52.0723 24.1953 51.7891 24.6966 51.2227 24.9766C50.9427 25.1198 50.6562 25.1914 50.3633 25.1914L50.1875 24.8398C50.5326 24.612 50.7051 24.1562 50.7051 23.4727V21.0801H47.2871V25.5234H45.9199V21.0801H43.5273V20.5625H45.9199V18.1797H43.8594ZM52.4141 18.3457H51.0469L50.3633 16.6367H51.7305L52.4141 18.3457ZM47.2871 18.1797V20.5625H49.1719V18.1797H47.2871Z" fill="#ED6060"/>
<defs>
<filter id="filter0_ddi_4_2" x="0" y="0" width="78" height="81" filterUnits="userSpaceOnUse" color-interpolation-filters="sRGB">
<feFlood flood-opacity="0" result="BackgroundImageFix"/>
<feColorMatrix in="SourceAlpha" type="matrix" values="0 0 0 0 0 0 0 0 0 0 0 0 0 0 0 0 0 0 127 0" result="hardAlpha"/>
<feMorphology radius="1" operator="erode" in="SourceAlpha" result="effect1_dropShadow_4_2"/>
<feOffset dx="4" dy="1"/>
<feGaussianBlur stdDeviation="2"/>
<feComposite in2="hardAlpha" operator="out"/>
<feColorMatrix type="matrix" values="0 0 0 0 0 0 0 0 0 0 0 0 0 0 0 0 0 0 0.25 0"/>
<feBlend mode="normal" in2="BackgroundImageFix" result="effect1_dropShadow_4_2"/>
<feColorMatrix in="SourceAlpha" type="matrix" values="0 0 0 0 0 0 0 0 0 0 0 0 0 0 0 0 0 0 127 0" result="hardAlpha"/>
<feOffset dy="20"/>
<feGaussianBlur stdDeviation="12.5"/>
<feComposite in2="hardAlpha" operator="out"/>
<feColorMatrix type="matrix" values="0 0 0 0 0 0 0 0 0 0 0 0 0 0 0 0 0 0 0.25 0"/>
<feBlend mode="normal" in2="effect1_dropShadow_4_2" result="effect2_dropShadow_4_2"/>
<feBlend mode="normal" in="SourceGraphic" in2="effect2_dropShadow_4_2" result="shape"/>
<feColorMatrix in="SourceAlpha" type="matrix" values="0 0 0 0 0 0 0 0 0 0 0 0 0 0 0 0 0 0 127 0" result="hardAlpha"/>
<feOffset dy="2"/>
<feGaussianBlur stdDeviation="2"/>
<feComposite in2="hardAlpha" operator="arithmetic" k2="-1" k3="1"/>
<feColorMatrix type="matrix" values="0 0 0 0 1 0 0 0 0 1 0 0 0 0 1 0 0 0 0.15 0"/>
<feBlend mode="normal" in2="shape" result="effect3_innerShadow_4_2"/>
</filter>
</defs>
</svg>
